mtllib Barrel-UVFlip.mtl

g Hgn_Turret
usemtl Hgn_Turret

v 2.907631 1.39009 -12.87373
vt 0.3957994 0.9367806
vn 1 -4.481787E-07 -7.156139E-08

v 2.907631 -1.199968 -12.87373
vt 0.3957994 0.9984602
vn 1 -4.481787E-07 -7.156139E-08

v 2.907629 -1.199968 -31.19788
vt 0.005293842 0.9984598
vn 1 -4.481787E-07 -7.156139E-08

v 2.907631 1.390086 -31.19788
vt 0.005294677 0.93678
vn 1 -4.481787E-07 -7.156139E-08

v -2.794433 -1.199968 -12.87373
vt 0.3958013 0.8019104
vn -1 -3.606912E-07 3.832634E-14

v -2.794434 1.39009 -12.87373
vt 0.3957998 0.8906958
vn -1 -3.606912E-07 3.832634E-14

v -2.794434 1.390086 -31.19788
vt 0.005294438 0.8906961
vn -1 -3.606912E-07 3.832634E-14

v -2.794433 -1.199968 -31.19788
vt 0.005298252 0.8019122
vn -1 -3.606912E-07 3.832634E-14

v -1.565242 -1.898 -12.87373
vt 0.3957984 0.8001056
vn 0 -1 -1.082831E-09

v -1.565242 -1.898 -31.19788
vt 0.005293962 0.8001066
vn 0 -1 -1.082831E-09

v 1.678437 -1.898 -31.19788
vt 0.005293842 0.8957311
vn 0 -1 -1.082831E-09

v 1.678437 -1.898 -12.87373
vt 0.3957996 0.8957303
vn 0 -1 -1.082831E-09

v 2.907631 1.39009 -12.87373
vt 0.3957994 0.9367806
vn 0.4938039 0.8695733 -1.792492E-07

v 2.907631 1.390086 -31.19788
vt 0.005294677 0.93678
vn 0.4938039 0.8695733 -1.792492E-07

v 1.678438 2.088107 -31.19788
vt 0.005293008 0.8951075
vn 0.4938039 0.8695733 -1.792492E-07

v 1.678438 2.088111 -12.87373
vt 0.3957987 0.8951087
vn 0.4938039 0.8695733 -1.792492E-07

v -2.794434 1.390086 -31.19788
vt 0.005294438 0.8906961
vn -0.4938046 0.8695729 -1.802627E-07

v -2.794434 1.39009 -12.87373
vt 0.3957998 0.8906958
vn -0.4938046 0.8695729 -1.802627E-07

v -1.565243 2.088111 -12.87373
vt 0.3958 0.939152
vn -0.4938046 0.8695729 -1.802627E-07

v -1.565243 2.088107 -31.19788
vt 0.005290742 0.9391509
vn -0.4938046 0.8695729 -1.802627E-07

v -2.794433 -1.199968 -12.87373
vt 0.3958013 0.9890312
vn -0.4938107 -0.8695694 5.259496E-10

v -2.794433 -1.199968 -31.19788
vt 0.005298252 0.989033
vn -0.4938107 -0.8695694 5.259496E-10

v -1.565242 -1.898 -31.19788
vt 0.005288835 0.9405776
vn -0.4938107 -0.8695694 5.259496E-10

v -1.565242 -1.898 -12.87373
vt 0.3957968 0.9405754
vn -0.4938107 -0.8695694 5.259496E-10

v 2.907629 -1.199968 -31.19788
vt 0.005293842 0.9374031
vn 0.4938102 -0.8695697 -3.644226E-08

v 2.907631 -1.199968 -12.87373
vt 0.3957994 0.9374027
vn 0.4938102 -0.8695697 -3.644226E-08

v 1.678437 -1.898 -12.87373
vt 0.3957996 0.8957303
vn 0.4938102 -0.8695697 -3.644226E-08

v 1.678437 -1.898 -31.19788
vt 0.005293842 0.8957311
vn 0.4938102 -0.8695697 -3.644226E-08

v 1.678438 2.088111 -12.87373
vt 0.3957987 0.8951087
vn 6.120659E-14 1 -2.10447E-07

v 1.678438 2.088107 -31.19788
vt 0.005293008 0.8951075
vn 6.120659E-14 1 -2.10447E-07

v -1.565243 2.088107 -31.19788
vt 0.005290743 0.7994831
vn 6.120659E-14 1 -2.10447E-07

v -1.565243 2.088111 -12.87373
vt 0.3958 0.799484
vn 6.120659E-14 1 -2.10447E-07

v 1.164902 -1.266866 -7.435585
vt 0.7290016 0.700829
vn -7.21936E-07 1.158651E-13 1

v 2.004807 -0.78988 -7.435585
vt 0.6871513 0.6769586
vn -7.21936E-07 1.158651E-13 1

v 2.004807 0.980006 -7.435585
vt 0.6871513 0.5730747
vn -7.21936E-07 1.158651E-13 1

v 1.164902 1.456984 -7.435585
vt 0.7290016 0.5492046
vn -7.21936E-07 1.158651E-13 1

v -1.051639 1.456984 -7.435585
vt 0.8361662 0.5492048
vn -7.21936E-07 1.158651E-13 1

v -1.891614 0.980006 -7.435588
vt 0.8780202 0.5730749
vn -7.21936E-07 1.158651E-13 1

v -1.891614 -0.78988 -7.435588
vt 0.8780202 0.6769588
vn -7.21936E-07 1.158651E-13 1

v -1.05164 -1.266866 -7.435585
vt 0.8361662 0.7008291
vn -7.21936E-07 1.158651E-13 1

v -2.794434 1.390086 -31.19788
vt 0.005294438 0.8906961
vn -0.4738713 0.8344735 -0.2812473

v -1.565243 2.088107 -31.19788
vt 0.005290742 0.9391509
vn -0.4738713 0.8344735 -0.2812473

v -1.161173 1.588408 -33.36132
vt 0.06141558 0.9427094
vn -0.4738713 0.8344735 -0.2812473

v -2.080006 1.066634 -33.36132
vt 0.06142416 0.9064886
vn -0.4738713 0.8344735 -0.2812473

v -1.565243 2.088107 -31.19788
vt 0.005290743 0.7994831
vn 2.495909E-07 0.9743474 -0.2250495

v 1.678438 2.088107 -31.19788
vt 0.005293008 0.8951075
vn 2.495909E-07 0.9743474 -0.2250495

v 1.263456 1.588408 -33.36131
vt 0.06217887 0.8828799
vn 2.495909E-07 0.9743474 -0.2250495

v -1.161173 1.588408 -33.36132
vt 0.06217398 0.8114011
vn 2.495909E-07 0.9743474 -0.2250495

v 1.678438 2.088107 -31.19788
vt 0.005293008 0.8951075
vn 0.4735512 0.8339109 -0.2834468

v 2.907631 1.390086 -31.19788
vt 0.005294677 0.93678
vn 0.4735512 0.8339109 -0.2834468

v 2.182286 1.066634 -33.36132
vt 0.06139006 0.9229174
vn 0.4735512 0.8339109 -0.2834468

v 1.263456 1.588408 -33.36131
vt 0.06138172 0.8917673
vn 0.4735512 0.8339109 -0.2834468

v 2.907631 1.390086 -31.19788
vt 0.005294677 0.93678
vn 0.9481276 -8.093429E-06 -0.3178899

v 2.907629 -1.199968 -31.19788
vt 0.005293842 0.9984598
vn 0.9481276 -8.093429E-06 -0.3178899

v 2.18225 -0.869447 -33.36132
vt 0.06081643 0.988721
vn 0.9481276 -8.093429E-06 -0.3178899

v 2.182286 1.066634 -33.36132
vt 0.06081333 0.9463205
vn 0.9481276 -8.093429E-06 -0.3178899

v 2.907629 -1.199968 -31.19788
vt 0.005293842 0.9374031
vn 0.4731903 -0.8332583 -0.2859575

v 1.678437 -1.898 -31.19788
vt 0.005293842 0.8957311
vn 0.4731903 -0.8332583 -0.2859575

v 1.263454 -1.391214 -33.36131
vt 0.06135156 0.892462
vn 0.4731903 -0.8332583 -0.2859575

v 2.18225 -0.869447 -33.36132
vt 0.06134858 0.9236112
vn 0.4731903 -0.8332583 -0.2859575

v 1.678437 -1.898 -31.19788
vt 0.005293842 0.8957311
vn 2.1088E-07 -0.9736432 -0.2280767

v -1.565242 -1.898 -31.19788
vt 0.005293962 0.8001066
vn 2.1088E-07 -0.9736432 -0.2280767

v -1.161177 -1.391214 -33.36132
vt 0.06214144 0.812017
vn 2.1088E-07 -0.9736432 -0.2280767

v 1.263454 -1.391214 -33.36131
vt 0.06214025 0.8834957
vn 2.1088E-07 -0.9736432 -0.2280767

v -1.565242 -1.898 -31.19788
vt 0.005288835 0.9405776
vn -0.4735075 -0.8338296 -0.2837584

v -2.794433 -1.199968 -31.19788
vt 0.005298252 0.989033
vn -0.4735075 -0.8338296 -0.2837584

v -2.080006 -0.869447 -33.36132
vt 0.06138673 0.9733804
vn -0.4735075 -0.8338296 -0.2837584

v -1.161177 -1.391214 -33.36132
vt 0.06137206 0.9371599
vn -0.4735075 -0.8338296 -0.2837584

v -2.794433 -1.199968 -31.19788
vt 0.005298252 0.8019122
vn -0.9495642 -2.018498E-07 -0.3135726

v -2.794434 1.390086 -31.19788
vt 0.005294438 0.8906961
vn -0.9495642 -2.018498E-07 -0.3135726

v -2.080006 1.066634 -33.36132
vt 0.07082357 0.8795999
vn -0.9495642 -2.018498E-07 -0.3135726

v -2.080006 -0.869447 -33.36132
vt 0.07082977 0.8132329
vn -0.9495642 -2.018498E-07 -0.3135726

v 1.678437 -1.898 -12.87373
vt 0.3957996 0.8957303
vn 0.4885274 -0.8602517 0.1459728

v 2.907631 -1.199968 -12.87373
vt 0.3957994 0.9374027
vn 0.4885274 -0.8602517 0.1459728

v 2.004807 -0.78988 -7.435585
vt 0.517688 0.9202237
vn 0.4885274 -0.8602517 0.1459728

v 1.164902 -1.266866 -7.435585
vt 0.517687 0.8917487
vn 0.4885274 -0.8602517 0.1459728

v 2.907631 -1.199968 -12.87373
vt 0.3957994 0.9984602
vn 0.9864977 7.65917E-08 0.1637751

v 2.907631 1.39009 -12.87373
vt 0.3957994 0.9367806
vn 0.9864977 7.65917E-08 0.1637751

v 2.004807 0.980006 -7.435585
vt 0.5180328 0.9488739
vn 0.9864977 7.65917E-08 0.1637751

v 2.004807 -0.78988 -7.435585
vt 0.5180321 0.9863747
vn 0.9864977 7.65917E-08 0.1637751

v 2.907631 1.39009 -12.87373
vt 0.3957994 0.9367806
vn 0.4885216 0.8602552 0.1459714

v 1.678438 2.088111 -12.87373
vt 0.3957987 0.8951087
vn 0.4885216 0.8602552 0.1459714

v 1.164902 1.456984 -7.435585
vt 0.5176885 0.8911409
vn 0.4885216 0.8602552 0.1459714

v 2.004807 0.980006 -7.435585
vt 0.5176874 0.9196157
vn 0.4885216 0.8602552 0.1459714

v 1.678438 2.088111 -12.87373
vt 0.3957987 0.8951087
vn -4.664845E-08 0.9933329 0.1152817

v -1.565243 2.088111 -12.87373
vt 0.3958 0.799484
vn -4.664845E-08 0.9933329 0.1152817

v -1.051639 1.456984 -7.435585
vt 0.5171933 0.8146385
vn -4.664845E-08 0.9933329 0.1152817

v 1.164902 1.456984 -7.435585
vt 0.5171895 0.8799828
vn -4.664845E-08 0.9933329 0.1152817

v -1.565243 2.088111 -12.87373
vt 0.3958 0.939152
vn -0.4885096 0.8602617 0.1459735

v -2.794434 1.39009 -12.87373
vt 0.3957998 0.8906958
vn -0.4885096 0.8602617 0.1459735

v -1.891614 0.980006 -7.435588
vt 0.517688 0.9106778
vn -0.4885096 0.8602617 0.1459735

v -1.051639 1.456984 -7.435585
vt 0.5176867 0.9437898
vn -0.4885096 0.8602617 0.1459735

v -2.794434 1.39009 -12.87373
vt 0.3957998 0.8906958
vn -0.9864978 -9.874886E-08 0.1637745

v -2.794433 -1.199968 -12.87373
vt 0.3958013 0.8019104
vn -0.9864978 -9.874886E-08 0.1637745

v -1.891614 -0.78988 -7.435588
vt 0.5180328 0.8159701
vn -0.9864978 -9.874886E-08 0.1637745

v -1.891614 0.980006 -7.435588
vt 0.5180323 0.8766401
vn -0.9864978 -9.874886E-08 0.1637745

v -2.794433 -1.199968 -12.87373
vt 0.3958013 0.9890312
vn -0.4885155 -0.8602582 0.1459747

v -1.565242 -1.898 -12.87373
vt 0.3957968 0.9405754
vn -0.4885155 -0.8602582 0.1459747

v -1.05164 -1.266866 -7.435585
vt 0.5176816 0.9358875
vn -0.4885155 -0.8602582 0.1459747

v -1.891614 -0.78988 -7.435588
vt 0.5176888 0.9689993
vn -0.4885155 -0.8602582 0.1459747

v -1.565242 -1.898 -12.87373
vt 0.3957984 0.8001056
vn -4.066369E-08 -0.9933327 0.1152831

v 1.678437 -1.898 -12.87373
vt 0.3957996 0.8957303
vn -4.066369E-08 -0.9933327 0.1152831

v 1.164902 -1.266866 -7.435585
vt 0.5171924 0.8805852
vn -4.066369E-08 -0.9933327 0.1152831

v -1.05164 -1.266866 -7.435585
vt 0.5171902 0.8152409
vn -4.066369E-08 -0.9933327 0.1152831

# 104 vertice(s).

f 1/1/1 2/2/2 3/3/3
f 1/1/1 3/3/3 4/4/4
f 5/5/5 6/6/6 7/7/7
f 5/5/5 7/7/7 8/8/8
f 9/9/9 10/10/10 11/11/11
f 9/9/9 11/11/11 12/12/12
f 13/13/13 14/14/14 15/15/15
f 13/13/13 15/15/15 16/16/16
f 17/17/17 18/18/18 19/19/19
f 17/17/17 19/19/19 20/20/20
f 21/21/21 22/22/22 23/23/23
f 21/21/21 23/23/23 24/24/24
f 25/25/25 26/26/26 27/27/27
f 25/25/25 27/27/27 28/28/28
f 29/29/29 30/30/30 31/31/31
f 29/29/29 31/31/31 32/32/32
f 33/33/33 34/34/34 35/35/35
f 33/33/33 35/35/35 36/36/36
f 33/33/33 36/36/36 37/37/37
f 33/33/33 37/37/37 38/38/38
f 33/33/33 38/38/38 39/39/39
f 33/33/33 39/39/39 40/40/40
f 41/41/41 42/42/42 43/43/43
f 41/41/41 43/43/43 44/44/44
f 45/45/45 46/46/46 47/47/47
f 45/45/45 47/47/47 48/48/48
f 49/49/49 50/50/50 51/51/51
f 49/49/49 51/51/51 52/52/52
f 53/53/53 54/54/54 55/55/55
f 53/53/53 55/55/55 56/56/56
f 57/57/57 58/58/58 59/59/59
f 57/57/57 59/59/59 60/60/60
f 61/61/61 62/62/62 63/63/63
f 61/61/61 63/63/63 64/64/64
f 65/65/65 66/66/66 67/67/67
f 65/65/65 67/67/67 68/68/68
f 69/69/69 70/70/70 71/71/71
f 69/69/69 71/71/71 72/72/72
f 73/73/73 74/74/74 75/75/75
f 73/73/73 75/75/75 76/76/76
f 77/77/77 78/78/78 79/79/79
f 77/77/77 79/79/79 80/80/80
f 81/81/81 82/82/82 83/83/83
f 81/81/81 83/83/83 84/84/84
f 85/85/85 86/86/86 87/87/87
f 85/85/85 87/87/87 88/88/88
f 89/89/89 90/90/90 91/91/91
f 89/89/89 91/91/91 92/92/92
f 93/93/93 94/94/94 95/95/95
f 93/93/93 95/95/95 96/96/96
f 97/97/97 98/98/98 99/99/99
f 97/97/97 99/99/99 100/100/100
f 101/101/101 102/102/102 103/103/103
f 101/101/101 103/103/103 104/104/104
# 162 indices; 54 primitives.

# 1 primitive groups.

# 1 parts.

